{"title":"Furious 7 2015 720p HDTC NEW SOURCE x264 Pimp4003","uid":11825202,"size":2508650226,"categoryP":"video","categoryS":"movies","magnet":"?xt=urn:btih:62350ea892514c1ca9aefe50eda5d43087ec9bb4&amp;dn=Furious+7+2015+720p+HDTC+NEW+SOURCE+x264+Pimp4003&amp;tr=udp%3A%2F%2Ftracker.openbittorrent.com%3A80&amp;tr=udp%3A%2F%2Fopen.demonii.com%3A1337&amp;tr=udp%3A%2F%2Ftracker.coppersurfer.tk%3A6969&amp;tr=udp%3A%2F%2Fexodus.desync.com%3A6969","seeders":136,"leechers":3,"uploader":"shawnmurthy","files":1,"time":1429459769,"description":"NO HEAD ON THIS ONE AND IT IS A TC RIP WITH AWESOME LINE AUDIO WHICH IS A CHINESE THEATER CUT...DOES HAVE CHINESE SUBS...COULD NOT BE REMOVED....I ALSO GOT NEW AUDIO WHICH I SYNCED THE VIDEO TO THIS...ENJOY....PIMP4003\n\nGO HERE...[URL]http://pimp4003DOTnet/torrents.php?id=62350ea892514c1ca9aefe50eda5d43087ec9bb4\n\n[color=blue][size=200][b]I am looking for: Pre-Retail Supplier Unreleased DVD/BluRay/Web-Dls/R5/CAM/TS If you have something to offer, please contact ME: &lt;a class=&quot;__cf_email__&quot; href=&quot;/cdn-cgi/l/email-protection&quot; data-cfemail=&quot;08786165783c38383b48607d7b6065696164266b676526&quot;&gt;[email&amp;#160;protected]&lt;/a&gt;&lt;script cf-hash='f9e31' type=&quot;text/javascript&quot;&gt;\n/* &lt;![CDATA[ */!function(){try{var t=&quot;currentScript&quot;in document?document.currentScript:function(){for(var t=document.getElementsByTagName(&quot;script&quot;),e=t.length;e--;)if(t[e].getAttribute(&quot;cf-hash&quot;))return t[e]}();if(t&amp;&amp;t.previousSibling){var e,r,n,i,c=t.previousSibling,a=c.getAttribute(&quot;data-cfemail&quot;);if(a){for(e=&quot;&quot;,r=parseInt(a.substr(0,2),16),n=2;a.length-n;n+=2)i=parseInt(a.substr(n,2),16)^r,e+=String.fromCharCode(i);e=document.createTextNode(e),c.parentNode.replaceChild(e,c)}}}catch(u){}}();/* ]]&gt; */&lt;/script&gt; WE CAN WORK OUT A GREAT DEAL THAT WORKS OUT FOR EVERY PARTY. I ALSO NEED NEW CAMMERS...EMAIL ME AT &lt;a class=&quot;__cf_email__&quot; href=&quot;/cdn-cgi/l/email-protection&quot; data-cfemail=&quot;a2f2ebeff296929291e2eaf7f1eaefe3ebee8ce1edef&quot;&gt;[email&amp;#160;protected]&lt;/a&gt;&lt;script cf-hash='f9e31' type=&quot;text/javascript&quot;&gt;\n/* &lt;![CDATA[ */!function(){try{var t=&quot;currentScript&quot;in document?document.currentScript:function(){for(var t=document.getElementsByTagName(&quot;script&quot;),e=t.length;e--;)if(t[e].getAttribute(&quot;cf-hash&quot;))return t[e]}();if(t&amp;&amp;t.previousSibling){var e,r,n,i,c=t.previousSibling,a=c.getAttribute(&quot;data-cfemail&quot;);if(a){for(e=&quot;&quot;,r=parseInt(a.substr(0,2),16),n=2;a.length-n;n+=2)i=parseInt(a.substr(n,2),16)^r,e+=String.fromCharCode(i);e=document.createTextNode(e),c.parentNode.replaceChild(e,c)}}}catch(u){}}();/* ]]&gt; */&lt;/script&gt;[/b][/size][/color]\n &lt;a href=&quot;\nhttp://i.imgur.com/J3ny9bJ.jpg&quot; rel=&quot;nofollow&quot; target=&quot;_NEW&quot;&gt;\nhttp://i.imgur.com/J3ny9bJ.jpg&lt;/a&gt;\n &lt;a href=&quot;\nhttp://i.imgur.com/SpsuXOR.png&quot; rel=&quot;nofollow&quot; target=&quot;_NEW&quot;&gt;\nhttp://i.imgur.com/SpsuXOR.png&lt;/a&gt;\n\n[u][b][color=green]PIMP THE ONE AND ONLY PIMPSTER.....PRESENTS[/color][/b][/u]\n\n[img]http://i.imgur.com/F9TJQz1.png[/img]\n\n\n\nFurious 7 2015 720p HDTC NEW SOURCE x264 Pimp4003\n &lt;a href=&quot;\nhttp://www.imdb.com/title/tt2820852/&quot; rel=&quot;nofollow&quot; target=&quot;_NEW&quot;&gt;\nhttp://www.imdb.com/title/tt2820852/&lt;/a&gt;\n\nDeckard Shaw seeks revenge against Dominic Toretto and his family for his comatose brother.\n\nDirector: James Wan\n\nWriters: Chris Morgan, Gary Scott Thompson (characters)\n\nStars: Vin Diesel, Paul Walker, Dwayne Johnson |See full cast and crew Â»\n\nVideo\n\nID : 1\n\nFormat : MPEG-4 Visual\n\nFormat profile : Simple@L3\n\nFormat settings, BVOP : No\n\nFormat settings, QPel : No\n\nFormat settings, GMC : No warppoints\n\nFormat settings, Matrix : Default (H.263)\n\nCodec ID : 20\n\nDuration : 2h 10mn\n\nBit rate : 2 393 Kbps\n\nWidth : 1 280 pixels\n\nHeight : 536 pixels\n\nDisplay aspect ratio : 2.40:1\n\nFrame rate mode : Variable\n\nFrame rate : 59.940 fps\n\nMinimum frame rate : 59.916 fps\n\nMaximum frame rate : 60.157 fps\n\nColor space : YUV\n\nChroma subsampling : 4:2:0\n\nBit depth : 8 bits\n\nScan type : Progressive\n\nCompression mode : Lossy\n\nBits/(Pixel*Frame) : 0.058\n\nStream size : 2.18 GiB (93%)\n\nWriting library : ZJMedia MPEG Encoder\n\nAudio\n\nID : 2\n\nFormat : AAC\n\nFormat/Info : Advanced Audio Codec\n\nFormat profile : LC\n\nCodec ID : 40\n\nDuration : 2h 10mn\n\nBit rate mode : Variable\n\nBit rate : 165 Kbps\n\nChannel(s) : 2 channels\n\nChannel positions : Front: L R\n\nSampling rate : 48.0 KHz\n\nCompression mode : Lossy\n\nStream size : 154 MiB (6%)\n\nLanguage : English","torrent":{"xt":"urn:btih:62350ea892514c1ca9aefe50eda5d43087ec9bb4","amp;dn":"Furious+7+2015+720p+HDTC+NEW+SOURCE+x264+Pimp4003","amp;tr":["udp%3A%2F%2Ftracker.openbittorrent.com%3A80","udp%3A%2F%2Fopen.demonii.com%3A1337","udp%3A%2F%2Ftracker.coppersurfer.tk%3A6969","udp%3A%2F%2Fexodus.desync.com%3A6969"],"infoHash":"62350ea892514c1ca9aefe50eda5d43087ec9bb4","infoHashBuffer":{"type":"Buffer","data":[98,53,14,168,146,81,76,28,169,174,254,80,237,165,212,48,135,236,155,180]},"announce":[],"urlList":[]}}